<svg width="21" height="20" viewBox="0 0 21 20" fill="none" xmlns="http://www.w3.org/2000/svg">
  <path d="M13.8061 0.0784017C12.769 -0.265061 11.5954 0.542712 10.3151 2.47628C9.53912 3.68732 8.87287 4.96442 8.32422 6.29254C8.88329 6.23105 9.44663 6.18441 10.01 6.15261C11.4866 2.90455 12.8971 1.47557 13.3132 1.47557H13.3302C13.6418 1.66215 13.9064 3.27346 13.3985 6.12929C13.3174 6.58936 13.2171 7.07911 13.0934 7.60067C12.88 8.47628 12.6133 9.43883 12.2633 10.4883C12.178 10.7406 12.0926 10.9844 12.0072 11.224C12.5763 11.1717 13.1261 11.1053 13.6567 11.0247C13.6567 11.0014 13.6716 10.978 13.6802 10.9547C14.0515 9.84801 14.3566 8.75402 14.5956 7.70667C14.7108 7.20632 14.8097 6.71939 14.8922 6.24589C15.0202 5.52464 15.1092 4.7971 15.1589 4.06639C15.2976 1.76391 14.8431 0.419744 13.8061 0.0784017Z" fill="url(#paint0_linear_103_194)"/>
  <path d="M7.71759 18.3517H7.70052C7.35697 18.1397 7.07317 16.2316 7.80508 12.8181C7.29509 12.7948 6.79363 12.7609 6.31138 12.7121C5.64349 15.8923 5.48558 19.1828 7.22894 19.7595C7.38324 19.8097 7.54455 19.8355 7.70692 19.8358C9.71487 19.8358 11.8039 15.8902 13.0864 12.604C12.5358 12.6718 11.9789 12.727 11.4198 12.7651C9.8045 16.6556 8.1721 18.3517 7.71759 18.3517Z" fill="url(#paint1_linear_103_194)"/>
  <path d="M5.89146 7.50956C5.94407 7.6824 6.05881 7.82998 6.21384 7.9242C6.36888 8.01843 6.55337 8.0527 6.7322 8.02051C7.04588 7.96539 7.37235 7.91451 7.7031 7.86998C8.24083 7.79578 8.79777 7.73429 9.36751 7.68977C9.71319 7.66009 10.0653 7.63677 10.4216 7.61981C10.9274 7.59649 11.4288 7.58589 11.9153 7.58589C12.3144 7.58589 12.707 7.58588 13.0911 7.60921C13.2148 7.08765 13.3151 6.5979 13.3962 6.13783C12.3976 6.08907 11.3648 6.09119 10.3491 6.13783L10.0077 6.15903C9.44432 6.19083 8.88099 6.23747 8.32192 6.29896C7.68177 6.36892 7.06721 6.45585 6.46547 6.56186C6.36236 6.58096 6.26446 6.62141 6.17813 6.6806C6.09181 6.73979 6.019 6.81638 5.96445 6.90538C5.90989 6.99439 5.87482 7.09381 5.86151 7.19718C5.8482 7.30055 5.85695 7.40554 5.8872 7.50532L5.89146 7.50956Z" fill="url(#paint2_linear_103_194)"/>
  <path d="M14.8923 6.25439C14.8098 6.72789 14.711 7.21481 14.5957 7.71517C15.3135 7.7842 16.0262 7.89821 16.7296 8.05651C18.5242 8.48054 18.9211 8.99362 18.9253 9.07842C18.9296 9.16323 18.5818 9.71446 16.8363 10.3017C15.798 10.6355 14.7329 10.8802 13.6526 11.0332C13.1205 11.1138 12.5707 11.1802 12.0031 11.2325C11.5422 11.2749 11.0728 11.3074 10.5948 11.33C9.75831 11.3682 8.94104 11.3745 8.15792 11.3491C7.63512 11.3321 7.1294 11.3025 6.64502 11.2579C5.85017 11.1901 5.06094 11.0683 4.28285 10.8933C2.49041 10.4692 2.09139 9.95616 2.08712 9.87135C2.08285 9.78655 2.31544 9.424 3.33755 8.97029C3.42638 8.9302 3.50639 8.87312 3.57302 8.8023C3.63965 8.73149 3.69158 8.64832 3.72586 8.55756C3.76014 8.4668 3.77609 8.37023 3.77281 8.27334C3.76952 8.17646 3.74706 8.08117 3.70671 7.99291C3.66636 7.90465 3.60891 7.82515 3.53763 7.75895C3.46636 7.69275 3.38266 7.64116 3.29131 7.6071C3.19997 7.57304 3.10276 7.55719 3.00525 7.56045C2.90774 7.56372 2.81183 7.58603 2.723 7.62613C1.38935 8.22401 0.550747 8.99786 0.589156 9.94344C0.663841 11.5293 3.17538 12.4028 6.2972 12.7145C6.78372 12.7632 7.28517 12.7971 7.79089 12.8205C8.22762 12.8388 8.66933 12.848 9.11602 12.848C9.62814 12.848 10.1445 12.8353 10.6545 12.812C10.9042 12.8014 11.1517 12.7844 11.4014 12.7675C11.9604 12.7293 12.5174 12.6742 13.0679 12.6063C16.9963 12.1229 20.498 10.9102 20.4062 9.00209C20.3465 7.45015 17.9309 6.5809 14.8923 6.25439Z" fill="url(#paint3_linear_103_194)"/>
  <defs>
  <linearGradient id="paint0_linear_103_194" x1="3350.95" y1="4415.05" x2="2793.88" y2="5238.91" gradientUnits="userSpaceOnUse">
  <stop stop-color="#eee"/>
  <stop offset="0.62" stop-color="#8E5AFF"/>
  </linearGradient>
  <linearGradient id="paint1_linear_103_194" x1="3546.58" y1="2862.08" x2="3273.82" y2="3523.16" gradientUnits="userSpaceOnUse">
  <stop stop-color="#eee"/>
  <stop offset="0.62" stop-color="#8E5AFF"/>
  </linearGradient>
  <linearGradient id="paint2_linear_103_194" x1="2872.32" y1="881.991" x2="4176.57" y2="881.991" gradientUnits="userSpaceOnUse">
  <stop stop-color="#eee"/>
  <stop offset="0.62" stop-color="#8E5AFF"/>
  </linearGradient>
  <linearGradient id="paint3_linear_103_194" x1="7534.8" y1="3075.53" x2="10962.9" y2="3075.53" gradientUnits="userSpaceOnUse">
  <stop stop-color="#eee"/>
  <stop offset="0.62" stop-color="#8E5AFF"/>
  </linearGradient>
  </defs>
</svg>
  