<svg width="135" height="48" viewBox="0 0 135 48" fill="none" xmlns="http://www.w3.org/2000/svg">
  <g clip-path="url(#clip0_103_222)">
  <path d="M54.7822 23.3745V48H46.5989V29.6459H43.0908V23.3745H54.7822Z" fill="#8E5AFF"/>
  <path d="M82.0212 27.3392V48.0021H73.8401V29.648H70.332V23.3745H78.0331C79.091 23.3751 80.1054 23.793 80.8533 24.5365C81.6011 25.2799 82.0212 26.2881 82.0212 27.3392Z" fill="white"/>
  <path d="M59.1992 43.7472V15.4751H67.3825V41.7288H70.8906V48.0023H63.4819C62.3462 48.0017 61.2572 47.5533 60.4542 46.7554C59.6512 45.9575 59.1998 44.8755 59.1992 43.7472Z" fill="white"/>
  <path d="M78.7495 15.0107H78.5809C76.7731 15.0107 75.3076 16.4668 75.3076 18.263C75.3076 20.0592 76.7731 21.5153 78.5809 21.5153H78.7495C80.5573 21.5153 82.0228 20.0592 82.0228 18.263C82.0228 16.4668 80.5573 15.0107 78.7495 15.0107Z" fill="white"/>
  <path d="M98.7416 29.6481C97.0886 29.6481 95.2179 29.9576 93.1296 30.5767V48.0022H84.9463V23.3746H92.6282L92.6559 25.7068C94.0448 24.7793 95.5661 24.0646 97.169 23.5866C99.1179 23.0194 101.151 22.7913 103.178 22.9124C105.482 23.0693 106.995 23.5485 108.276 24.8206C109.556 26.0926 110.196 27.7887 110.196 29.8834V48.0064H102.015V31.2849C102.02 31.0699 101.981 30.8561 101.901 30.6564C101.821 30.4568 101.7 30.2754 101.547 30.1233C101.394 29.9713 101.212 29.8517 101.011 29.7718C100.81 29.692 100.595 29.6535 100.378 29.6587L98.7416 29.6481Z" fill="white"/>
  <path d="M28.9947 38.2431L33.3798 23.3745H42.088L34.372 48.0021H25.7214L21.044 33.1335L16.3687 48.0021H7.71599L0 23.3745H8.88534L13.0976 38.2431L17.3055 23.3745H24.7889L28.9947 38.2431Z" fill="#8E5AFF"/>
  <path d="M121.305 31.9698V31.6369V15.4751H113.122V48.0002H121.305V38.449V38.2433V31.9698Z" fill="white"/>
  <path d="M135 23.3745H126.35L121.205 31.9696H120.951V38.2431H120.973L126.35 48H135L127.986 35.2219L135 23.3745Z" fill="white"/>
  <path d="M49.16 11.3553C48.6372 11.3384 48.1315 11.3087 47.6471 11.2642C47.5233 11.7391 47.4081 12.2288 47.3057 12.7207C47.7922 12.7695 48.2936 12.8034 48.7994 12.8267C48.906 12.356 49.0234 11.8663 49.16 11.3553Z" fill="url(#paint0_linear_103_222)"/>
  <path d="M53.0003 11.2325C52.8061 11.7774 52.6076 12.2926 52.4092 12.7675C52.9682 12.7293 53.5252 12.6742 54.0757 12.6063C54.2891 12.0572 54.4833 11.5251 54.6497 11.0332C54.1191 11.1138 53.5693 11.1802 53.0003 11.2325Z" fill="url(#paint1_linear_103_222)"/>
  <path d="M54.0928 7.60907C54.6113 7.63027 55.1149 7.66631 55.5865 7.71507C55.7017 7.21472 55.8006 6.7278 55.8831 6.2543C55.3987 6.2013 54.8994 6.16314 54.3894 6.1377C54.3168 6.59777 54.2165 7.08751 54.0928 7.60907Z" fill="url(#paint2_linear_103_222)"/>
  <path d="M54.8061 0.0784017C53.769 -0.265061 52.5954 0.542712 51.3151 2.47628C50.5391 3.68732 49.8729 4.96442 49.3242 6.29254C49.8833 6.23105 50.4466 6.18441 51.01 6.15261C52.4866 2.90455 53.8971 1.47557 54.3132 1.47557H54.3302C54.6418 1.66215 54.9064 3.27346 54.3985 6.12929C54.3174 6.58936 54.2171 7.07911 54.0934 7.60067C53.88 8.47628 53.6133 9.43883 53.2633 10.4883C53.178 10.7406 53.0926 10.9844 53.0072 11.224C53.5763 11.1717 54.1261 11.1053 54.6567 11.0247C54.6567 11.0014 54.6716 10.978 54.6802 10.9547C55.0515 9.84801 55.3566 8.75402 55.5956 7.70667C55.7108 7.20632 55.8097 6.71939 55.8922 6.24589C56.0202 5.52464 56.1092 4.7971 56.1589 4.06639C56.2976 1.76391 55.8431 0.419744 54.8061 0.0784017Z" fill="url(#paint3_linear_103_222)"/>
  <path d="M48.7176 18.3517H48.7005C48.357 18.1397 48.0732 16.2316 48.8051 12.8181C48.2951 12.7948 47.7936 12.7609 47.3114 12.7121C46.6435 15.8923 46.4856 19.1828 48.2289 19.7595C48.3832 19.8097 48.5445 19.8355 48.7069 19.8358C50.7149 19.8358 52.8039 15.8902 54.0864 12.604C53.5358 12.6718 52.9789 12.727 52.4198 12.7651C50.8045 16.6556 49.1721 18.3517 48.7176 18.3517Z" fill="url(#paint4_linear_103_222)"/>
  <path d="M49.7673 9.34365C49.9637 8.75426 50.1642 8.20514 50.367 7.68994C49.7972 7.73446 49.2403 7.79595 48.7026 7.87015C48.5831 8.2009 48.4636 8.53588 48.3505 8.8751C48.1136 9.58535 47.8682 10.4016 47.6484 11.2581C48.1328 11.3027 48.6385 11.3323 49.1613 11.3493C49.3306 10.7203 49.5326 10.0518 49.7673 9.34365Z" fill="url(#paint5_linear_103_222)"/>
  <path d="M51.0098 6.15918C50.4465 6.19098 49.8831 6.23763 49.3241 6.29911C49.1093 6.80653 48.9023 7.33021 48.7031 7.87013C49.2409 7.79593 49.7978 7.73444 50.3675 7.68992C50.5809 7.1408 50.7964 6.62985 51.0098 6.15918Z" fill="url(#paint6_linear_103_222)"/>
  <path d="M46.8915 7.50956C46.9441 7.6824 47.0588 7.82998 47.2138 7.9242C47.3689 8.01843 47.5534 8.0527 47.7322 8.02051C48.0459 7.96539 48.3724 7.91451 48.7031 7.86998C49.2408 7.79578 49.7978 7.73429 50.3675 7.68977C50.7132 7.66009 51.0653 7.63677 51.4216 7.61981C51.9274 7.59649 52.4288 7.58589 52.9153 7.58589C53.3144 7.58589 53.707 7.58588 54.0911 7.60921C54.2148 7.08765 54.3151 6.5979 54.3962 6.13783C53.3976 6.08907 52.3648 6.09119 51.3491 6.13783L51.0077 6.15903C50.4443 6.19083 49.881 6.23747 49.3219 6.29896C48.6818 6.36892 48.0672 6.45585 47.4655 6.56186C47.3624 6.58096 47.2645 6.62141 47.1781 6.6806C47.0918 6.73979 47.019 6.81638 46.9644 6.90538C46.9099 6.99439 46.8748 7.09381 46.8615 7.19718C46.8482 7.30055 46.857 7.40554 46.8872 7.50532L46.8915 7.50956Z" fill="url(#paint7_linear_103_222)"/>
  <path d="M55.8923 6.25439C55.8098 6.72789 55.711 7.21481 55.5957 7.71517C56.3135 7.7842 57.0262 7.89821 57.7296 8.05651C59.5242 8.48054 59.9211 8.99362 59.9253 9.07842C59.9296 9.16323 59.5818 9.71446 57.8363 10.3017C56.798 10.6355 55.7329 10.8802 54.6526 11.0332C54.1205 11.1138 53.5707 11.1802 53.0031 11.2325C52.5422 11.2749 52.0728 11.3074 51.5948 11.33C50.7583 11.3682 49.941 11.3745 49.1579 11.3491C48.6351 11.3321 48.1294 11.3025 47.645 11.2579C46.8502 11.1901 46.0609 11.0683 45.2828 10.8933C43.4904 10.4692 43.0914 9.95616 43.0871 9.87135C43.0829 9.78655 43.3154 9.424 44.3376 8.97029C44.4264 8.9302 44.5064 8.87312 44.573 8.8023C44.6396 8.73149 44.6916 8.64832 44.7259 8.55756C44.7601 8.4668 44.7761 8.37023 44.7728 8.27334C44.7695 8.17646 44.7471 8.08117 44.7067 7.99291C44.6664 7.90465 44.6089 7.82515 44.5376 7.75895C44.4664 7.69275 44.3827 7.64116 44.2913 7.6071C44.2 7.57304 44.1028 7.55719 44.0053 7.56045C43.9077 7.56372 43.8118 7.58603 43.723 7.62613C42.3893 8.22401 41.5507 8.99785 41.5892 9.94344C41.6638 11.5293 44.1754 12.4028 47.2972 12.7145C47.7837 12.7632 48.2852 12.7971 48.7909 12.8205C49.2276 12.8388 49.6693 12.848 50.116 12.848C50.6281 12.848 51.1445 12.8353 51.6545 12.812C51.9042 12.8014 52.1517 12.7844 52.4014 12.7675C52.9604 12.7293 53.5174 12.6742 54.0679 12.6063C57.9963 12.1229 61.498 10.9102 61.4062 9.00209C61.3465 7.45015 58.9309 6.5809 55.8923 6.25439Z" fill="url(#paint8_linear_103_222)"/>
  </g>
  <defs>
  <linearGradient id="paint0_linear_103_222" x1="46.8384" y1="12.038" x2="56.1824" y2="12.038" gradientUnits="userSpaceOnUse">
  <stop stop-color="#5E3BBC"/>
  <stop offset="0.62" stop-color="#8E5AFF"/>
  </linearGradient>
  <linearGradient id="paint1_linear_103_222" x1="1027.31" y1="837.536" x2="1125.43" y2="837.536" gradientUnits="userSpaceOnUse">
  <stop stop-color="#5E3BBC"/>
  <stop offset="0.62" stop-color="#8E5AFF"/>
  </linearGradient>
  <linearGradient id="paint2_linear_103_222" x1="833.091" y1="720.864" x2="911.488" y2="720.864" gradientUnits="userSpaceOnUse">
  <stop stop-color="#5E3BBC"/>
  <stop offset="0.62" stop-color="#8E5AFF"/>
  </linearGradient>
  <linearGradient id="paint3_linear_103_222" x1="3391.95" y1="4415.05" x2="2834.88" y2="5238.91" gradientUnits="userSpaceOnUse">
  <stop stop-color="#5E3BBC"/>
  <stop offset="0.62" stop-color="#8E5AFF"/>
  </linearGradient>
  <linearGradient id="paint4_linear_103_222" x1="3587.58" y1="2862.08" x2="3314.82" y2="3523.16" gradientUnits="userSpaceOnUse">
  <stop stop-color="#5E3BBC"/>
  <stop offset="0.62" stop-color="#8E5AFF"/>
  </linearGradient>
  <linearGradient id="paint5_linear_103_222" x1="1343.46" y1="1431.18" x2="1177.16" y2="1730.13" gradientUnits="userSpaceOnUse">
  <stop stop-color="#5E3BBC"/>
  <stop offset="0.62" stop-color="#8E5AFF"/>
  </linearGradient>
  <linearGradient id="paint6_linear_103_222" x1="1052.39" y1="782.111" x2="1153.4" y2="782.111" gradientUnits="userSpaceOnUse">
  <stop stop-color="#5E3BBC"/>
  <stop offset="0.62" stop-color="#8E5AFF"/>
  </linearGradient>
  <linearGradient id="paint7_linear_103_222" x1="2913.32" y1="881.991" x2="4217.57" y2="881.991" gradientUnits="userSpaceOnUse">
  <stop stop-color="#5E3BBC"/>
  <stop offset="0.62" stop-color="#8E5AFF"/>
  </linearGradient>
  <linearGradient id="paint8_linear_103_222" x1="7575.8" y1="3075.53" x2="11003.9" y2="3075.53" gradientUnits="userSpaceOnUse">
  <stop stop-color="#5E3BBC"/>
  <stop offset="0.62" stop-color="#8E5AFF"/>
  </linearGradient>
  <clipPath id="clip0_103_222">
  <rect width="135" height="48" fill="white"/>
  </clipPath>
  </defs>
  </svg>
  